# xmcd CD database file generated by OrangeCD 6.3
#
# Track frame offsets:
#	150
#	17140
#	36122
#	49189
#	65571
#	82538
#	101583
#	118569
#	129183
#	145473
#	164968
#
# Disc length: 2435 seconds
#
# Revision: 0
# Processed by: cddbd v1.5.2PL0 Copyright (c) Steve Scherf et al.
# Submitted via: OrangeCD 6.3
#
DISCID=9209810b
DTITLE=Samuel Ljungblahd - No. 3.
DYEAR=2009
DGENRE=Soul
TTITLE0=Everything
TTITLE1=Hold on to the light
TTITLE2=Yeah, yeah, yeah (is my song)
TTITLE3=Walking with fire
TTITLE4=Thankful
TTITLE5=Paradise feat The S.G.B's
TTITLE6=Just believe
TTITLE7=All I need
TTITLE8=Twister
TTITLE9=In my soul
TTITLE10=Lord I surrender feat The S.G.B's
EXTD=
EXTT0=
EXTT1=
EXTT2=
EXTT3=
EXTT4=
EXTT5=
EXTT6=
EXTT7=
EXTT8=
EXTT9=
EXTT10=
PLAYORDER=
